<svg width="40" height="24" viewBox="0 0 40 24" fill="none" xmlns="http://www.w3.org/2000/svg">
<path d="M3.5514 11.4056C2.20374 11.4056 1.3271 10.4505 1.3271 9.14206C1.3271 7.93832 2.13832 6.51215 2.9757 5.09906L4.50654 2.50841C5.14766 1.48785 4.79439 1.26542 2.88411 1.21308V0.964486H5.89346L9.43925 9.48224C9.8972 10.5944 10.2766 10.8299 10.7215 10.8822V11.1308H7.47664V10.8822C8.31402 10.8299 8.44486 10.5551 8 9.5215L7.38505 8.06916C7.0972 8.29159 6.70467 8.84112 6.15514 9.6C5.21308 10.8953 4.51963 11.4056 3.5514 11.4056ZM2.33458 8.5271C2.33458 9.5215 3.23738 10.1234 4.23178 10.1234C4.79439 10.1234 5.43551 9.66542 5.89346 9.0243L6.57383 8.06916C6.99252 7.49346 6.99252 7.21869 6.88785 6.89159L5.10841 2.71776L3.42056 5.57009C2.59626 6.97009 2.33458 7.68972 2.33458 8.5271ZM10.7002 11.1308V10.8822C12.1657 10.8299 12.6629 10.5421 12.6236 9.33832L12.5189 2.96635C12.532 1.76262 12.0086 1.47477 10.5432 1.42243V1.17383H14.8871C17.19 1.17383 18.7077 2.3514 18.7077 4.05234C18.7077 5.53084 17.5563 6.70841 16.104 6.70841C15.8946 6.70841 15.6853 6.68224 15.5414 6.66916L18.0012 9.73084C18.747 10.6729 19.3227 10.8299 19.9114 10.8822V11.1308H17.4909L13.775 5.57009L13.7488 9.37757C13.7357 10.5028 14.3638 10.8299 15.7638 10.8822V11.1308H10.7002ZM13.775 5.13832L13.932 4.99439C14.2853 5.7271 15.0965 6.18505 15.8815 6.18505C16.8105 6.18505 17.3993 5.53084 17.3993 4.39252C17.3993 2.82243 16.2741 1.63178 14.7825 1.63178C14.089 1.63178 13.8012 1.86729 13.7881 2.70467L13.775 5.13832ZM21.2501 11.1308V10.8822C22.7155 10.8299 23.2127 10.5421 23.1735 9.33832L23.0426 1.68411L22.6239 1.67103C20.7137 1.63178 19.8763 2.42991 19.1305 4.58878L18.7641 4.45794L19.7585 1.33084L19.7978 1.17383H27.5959L27.6352 1.33084L28.6296 4.45794L28.2632 4.58878C27.4782 2.40374 26.6408 1.67103 24.7697 1.67103L24.3511 1.68411L24.2987 9.33832C24.2595 10.5421 24.7697 10.8299 26.2352 10.8953V11.1439L21.2501 11.1308ZM27.9333 11.1308V10.8822C29.3988 10.8299 29.896 10.5421 29.8567 9.33832L29.752 2.96635C29.752 1.76262 29.3333 1.47477 28.1689 1.42243V1.17383H36.9614V4.44486H36.5427C36.5034 2.75701 35.2735 1.68411 33.1539 1.68411H31.0343L31.0081 5.68785H33.2978C33.9651 5.71402 34.0567 5.29533 34.096 3.73832H34.5277V8.14766H34.096C34.0567 6.59065 33.9651 6.17196 33.2978 6.19813H31.0081L30.9689 10.1234C31.6492 10.4374 32.4866 10.6206 33.2978 10.6206H34.0829C35.9801 10.6206 37.1184 9.56075 37.066 7.67664H37.4847V11.1308H27.9333ZM3.74766 23.1308V22.8822C5.21308 22.8299 5.6972 22.5421 5.61869 21.3383L5.55327 19.6766L2.62243 14.7178C2.02056 13.671 1.48411 13.4748 0.829907 13.4224V13.1738H5.25234V13.4224C3.85234 13.4748 3.52523 13.7234 4.07477 14.7047L6.48224 19.0224L8.70654 14.7308C9.22991 13.7364 8.88972 13.4748 7.48972 13.4224V13.1738H11.114V13.4224C10.4598 13.4748 9.94953 13.6841 9.38692 14.757L6.8486 19.5196L6.80935 21.3383C6.77009 22.5421 7.26729 22.843 8.73271 22.9215V23.1701L6.65234 23.1308H3.74766ZM16.3443 23.3402C14.0022 23.3402 12.4583 21.8224 12.4191 19.3626L12.3406 14.9664C12.3406 13.7626 11.9742 13.4748 10.9536 13.4224V13.1738H16.0564V13.4224C14.3817 13.4748 13.6097 13.8019 13.6097 14.9271L13.5966 19.3626C13.5835 21.4168 14.5256 22.6729 16.4882 22.6729C18.1368 22.6729 19.3536 21.4692 19.3536 19.3626V14.9271C19.3536 13.8019 18.7256 13.4748 17.3256 13.4224V13.1738H21.3686V13.4224C20.348 13.4748 19.9817 13.7626 19.9948 14.9664L19.9424 19.3626C19.9163 21.757 18.5293 23.3402 16.3443 23.3402ZM26.0539 23.3533C22.6651 23.3533 20.6633 21.1551 20.7156 17.9888C20.7679 14.7963 23.2539 12.7421 26.6558 12.7421C27.8203 12.7421 29.4427 13.1215 30.2801 13.5925V17.086H29.8614C29.8091 16.314 29.7306 15.5944 29.5343 15.0318C28.8801 14.1813 27.6371 13.5664 25.7268 13.5664C23.3324 13.5664 21.867 15.0187 21.8278 17.2168C21.7754 20.1607 23.895 22.5682 26.7997 22.5682C28.6446 22.5682 30.4764 21.5084 31.6408 19.7159L31.6932 19.6374C31.7848 19.5065 31.8894 19.3626 31.9941 19.2318C32.3605 18.7607 33.5773 17.3084 34.1137 16.628C34.6894 15.9084 34.9511 15.2019 34.8203 14.8355C34.5455 14.1421 34.2053 13.8673 33.6035 13.8673C32.4782 13.8542 32.1511 14.6654 32.0988 16.4841H31.8502V13.1738H37.8951V13.4224C36.1287 13.4748 35.7362 13.7364 36.1941 14.8486L38.7193 21.4561C39.138 22.5813 39.5044 22.8299 39.9493 22.8822V23.1308H36.0371V22.8822C37.4371 22.8299 37.8296 22.5421 37.4109 21.4953L36.7567 19.8336C36.3904 20.1346 35.9455 20.7888 35.4091 21.5346C34.467 22.8299 33.7736 23.3402 32.8053 23.3402C31.8109 23.3402 31.039 22.4897 31.039 21.4168C31.039 21.3121 31.0521 21.2075 30.9866 21.3252C29.6782 22.6598 28.1212 23.3533 26.0539 23.3533ZM32.2296 20.6579C32.2296 21.4692 32.753 22.0579 33.4857 22.0579C34.0483 22.0579 34.7025 21.6131 35.1474 20.9589L35.6053 20.2916C36.1679 19.5196 36.3642 18.8 36.2072 18.3944L35.396 16.3402C34.9511 16.5364 34.4932 16.9682 34.1399 17.4262C33.7081 17.9888 33.1324 18.7607 32.8184 19.1664C32.5044 19.572 32.2296 20.1869 32.2296 20.6579Z" fill="black"/>
</svg>
